<svg xmlns="http://www.w3.org/2000/svg" xmlns:xlink="http://www.w3.org/1999/xlink" xmlns:inkscape="http://www.inkscape.org/namespaces/inkscape" version="1.1" width="841.89" height="595.276" viewBox="0 0 841.89 595.276">
<defs>
<clipPath id="clip_0">
<path transform="matrix(2.83465,0,0,2.83465,0,0)" d="M74.1177 90.8721H222.921V119.031H74.1177V90.8721" clip-rule="evenodd"/>
</clipPath>
</defs>
<g clip-path="url(#clip_0)">
<path transform="matrix(2.83465,0,0,2.83465,0,0)" d="M105.171 110.088V105.589L105.229 105.448 105.371 105.389H111.703L112.144 105.352 112.621 105.171 112.929 104.764 112.974 104.255 113 103.805 112.962 103.416 112.852 103.102 112.661 102.829 112.162 102.549 111.585 102.477H105.371L105.229 102.418 105.171 102.277V101.378L105.229 101.236 105.371 101.178H111.585L112.278 101.285 112.937 101.524 113.669 102.107 114.17 102.897 114.386 103.808 114.292 104.739 114.042 105.434 113.627 106.044 113.072 106.531 112.407 106.733 111.696 106.768 110.003 106.774 108.127 106.778 108.143 106.764H106.585L106.443 106.822 106.385 106.964V110.088L106.326 110.229 106.185 110.288H105.371L105.229 110.229 105.171 110.088" fill="#f3f3f3" fill-rule="evenodd"/>
<path transform="matrix(2.83465,0,0,2.83465,0,0)" d="M124.499 102.375V101.411L124.558 101.27 124.699 101.211H133.626L133.768 101.27 133.826 101.411V102.375L133.768 102.516 133.626 102.575H124.699L124.558 102.516 124.499 102.375" fill="#f3f3f3" fill-rule="evenodd"/>
<path transform="matrix(2.83465,0,0,2.83465,0,0)" d="M131.281 106.296 131.223 106.437 131.081 106.496H124.699L124.558 106.437 124.499 106.296V105.174L124.558 105.032 124.699 104.974H131.081L131.223 105.032 131.281 105.174V106.296" fill="#f3f3f3" fill-rule="evenodd"/>
<path transform="matrix(2.83465,0,0,2.83465,0,0)" d="M133.826 109.14V110.104L133.768 110.245 133.626 110.304H124.699L124.558 110.245 124.499 110.104V109.14L124.558 108.999 124.699 108.94H133.626L133.768 108.999 133.826 109.14" fill="#f3f3f3" fill-rule="evenodd"/>
<path transform="matrix(2.83465,0,0,2.83465,0,0)" d="M151.071 103.05 150.208 102.487 149.221 102.188 148.19 102.177 147.204 102.231 146.265 102.538 145.438 103.078 144.779 103.813 144.498 104.374 144.309 104.972 144.282 106.036 144.557 107.063 145.112 107.97 145.902 108.683 146.81 109.089 147.785 109.285 148.78 109.26 150.039 108.991 151.206 108.447 151.662 108.079 151.956 107.992 152.224 108.138 152.507 108.488 152.593 108.788 152.438 109.059 151.893 109.471 150.793 110.13 149.578 110.544 148.304 110.693 147.027 110.571 145.805 110.183 144.691 109.547 143.823 108.724 143.189 107.712 142.827 106.572 142.761 105.379 142.996 104.207 143.415 103.292 144.032 102.498 144.813 101.865 145.673 101.394 146.602 101.078 147.57 100.926 148.869 100.932 150.149 101.154 151.194 101.608 152.096 102.304 152.453 102.765 152.552 103.055 152.416 103.329 152.077 103.626 151.781 103.723 151.505 103.578 151.071 103.05" fill="#f3f3f3" fill-rule="evenodd"/>
<path transform="matrix(2.83465,0,0,2.83465,0,0)" d="M161.98 102.262V101.318L162.038 101.177 162.18 101.118H171.116L171.258 101.177 171.316 101.318V102.262L171.258 102.404 171.116 102.462H167.318V110.353L167.259 110.495 167.118 110.553H166.174L166.032 110.495 165.974 110.353V102.462H162.18L162.038 102.404 161.98 102.262" fill="#f3f3f3" fill-rule="evenodd"/>
<path transform="matrix(2.83465,0,0,2.83465,0,0)" d="M181.5 102.277V101.378L181.559 101.236 181.7 101.178H187.002 187.602L188.348 101.237 189.068 101.439 189.767 101.844 190.302 102.451 190.616 103.195 190.721 104.173 190.495 105.13 190.178 105.773 189.714 106.319 188.905 106.677 188.025 106.768 187.754 106.767 185.879 106.783 181.5 106.796V105.589L181.559 105.448 181.7 105.389H188.032L188.571 105.333 189.039 105.063 189.251 104.657 189.309 104.203 189.33 103.805 189.292 103.416 189.182 103.102 188.991 102.829 188.492 102.549 187.915 102.477H181.7L181.559 102.418 181.5 102.277" fill="#f3f3f3" fill-rule="evenodd"/>
<path transform="matrix(2.83465,0,0,2.83465,0,0)" d="M188.383 106.763 190.719 109.754 190.76 109.902 190.685 110.035 189.941 110.616 189.793 110.657 189.66 110.581 186.684 106.771 187.583 106.767H187.754 187.886L188.025 106.768 188.383 106.763" fill="#f3f3f3" fill-rule="evenodd"/>
<path transform="matrix(2.83465,0,0,2.83465,0,0)" d="M200.659 109.636 205.389 101.237 205.599 101.058H205.875L206.086 101.237 210.816 109.636 210.831 109.788 210.735 109.907 209.903 110.355 209.751 110.371 209.633 110.274 205.913 103.375 205.807 103.282H205.667L205.561 103.375 201.842 110.274 201.723 110.371 201.571 110.355 200.74 109.907 200.643 109.788 200.659 109.636" fill="#f3f3f3" fill-rule="evenodd"/>
<path transform="matrix(2.83465,0,0,2.83465,0,0)" d="M85.2068 109.525 84.7387 109.174 84.583 108.91 84.6593 108.614 84.9296 108.254 85.1994 108.097 85.4995 108.182 86.0325 108.609 87.2947 108.953 88.5944 109.102 90.6236 109.085 91.4966 108.89 92.0715 108.523 92.3883 108.086 92.5394 107.568 92.5071 107.03 92.2511 106.613 91.8242 106.375 91.1317 106.238 90.4272 106.194 88.3374 106.09 89.5072 104.811 89.7298 104.826 90.4585 104.872 91.6842 105.005 92.5679 105.321 93.2281 105.757 93.6914 106.295 93.9515 107.086 93.9469 107.919 93.678 108.707 93.1727 109.369 92.3783 109.947 91.4608 110.296 90.2124 110.486 88.9498 110.496 87.8791 110.422 86.82 110.249 85.9755 109.972 85.2068 109.525" fill="#f3f3f3" fill-rule="evenodd"/>
<path transform="matrix(2.83465,0,0,2.83465,0,0)" d="M88.3374 106.09 87.1214 105.94 85.934 105.639 85.4243 105.341 85.0201 104.912 84.6761 104.14 84.6424 103.297 84.9238 102.501 85.4802 101.865 86.3057 101.371 87.2326 101.114 89.2629 101.035 90.3406 101.071 91.4064 101.234 92.4288 101.616 92.9096 101.951 93.0749 102.208 93.0097 102.507 92.753 102.877 92.4892 103.043 92.1861 102.97 91.6376 102.563 90.5932 102.263 89.5123 102.153 88.254 102.178 87.5739 102.263 86.8664 102.509 86.4752 102.826 86.1873 103.239 86.0671 103.598 86.1413 103.964 86.3663 104.25 86.6652 104.458 87.2545 104.661 88.3739 104.756 89.5072 104.811 88.3374 106.09" fill="#f3f3f3" fill-rule="evenodd"/>
</g>
</svg>
